# Blender v2.75 (sub 0) OBJ File: 'finger.blend'
# www.blender.org
mtllib finger.mtl
o Cube_Cube.001
v -3.000000 0.000000 -1.000000
v -3.000000 2.000000 -1.000000
v -1.000000 0.000000 -1.000000
v -1.000000 2.000000 -1.000000
v -3.000000 0.000000 1.000000
v -3.000000 2.000000 1.000000
v -1.000000 0.000000 1.000000
v -1.000000 2.000000 1.000000
v -3.000000 0.000000 -1.000000
v -3.000000 2.000000 -1.000000
v -3.000000 2.000000 1.000000
v -3.000000 0.000000 1.000000
v -5.000000 0.000000 -1.000000
v -5.000000 2.000000 -1.000000
v -5.000000 2.000000 1.000000
v -5.000000 0.000000 1.000000
v -7.000000 0.000000 -1.000000
v -7.000000 2.000000 -1.000000
v -7.000000 2.000000 1.000000
v -7.000000 0.000000 1.000000
vn -0.000000 0.000000 -1.000000
vn 1.000000 0.000000 0.000000
vn 0.000000 0.000000 1.000000
vn 0.000000 -1.000000 0.000000
vn 0.000000 1.000000 0.000000
vn -1.000000 0.000000 0.000000
usemtl None
s off
f 2//1 4//1 3//1 1//1
f 4//2 8//2 7//2 3//2
f 8//3 6//3 5//3 7//3
f 6//3 2//3 10//3 11//3
f 1//4 3//4 7//4 5//4
f 6//5 8//5 4//5 2//5
f 9//4 12//4 16//4 13//4
f 5//3 6//3 11//3 12//3
f 2//3 1//3 9//3 10//3
f 1//3 5//3 12//3 9//3
f 15//5 14//5 18//5 19//5
f 12//3 11//3 15//3 16//3
f 11//5 10//5 14//5 15//5
f 10//1 9//1 13//1 14//1
f 19//6 18//6 17//6 20//6
f 14//1 13//1 17//1 18//1
f 13//4 16//4 20//4 17//4
f 16//3 15//3 19//3 20//3
